<?xml version="1.0" standalone="no"?>
<!DOCTYPE svg PUBLIC "-//W3C//DTD SVG 20010904//EN"
 "http://www.w3.org/TR/2001/REC-SVG-20010904/DTD/svg10.dtd">
<svg version="1.0" xmlns="http://www.w3.org/2000/svg"
 width="70.000000pt" height="70.000000pt" viewBox="0 0 70.000000 70.000000"
 preserveAspectRatio="xMidYMid meet">
<metadata>
Created by potrace 1.14, written by Peter Selinger 2001-2017
</metadata>
<g transform="translate(0.000000,70.000000) scale(0.100000,-0.100000)"
fill="#000000" stroke="none">
<path d="M158 569 c-25 -14 -22 -30 8 -54 21 -17 33 -49 71 -195 48 -187 66
-240 82 -240 15 0 40 29 63 74 78 156 185 335 214 361 24 22 33 36 28 48 -9
24 -125 24 -149 1 -15 -15 -15 -18 4 -38 12 -12 21 -26 21 -30 0 -11 -111
-205 -120 -211 -9 -6 -20 23 -50 140 l-21 80 21 14 c24 16 26 46 4 55 -26 10
-158 6 -176 -5z"/>
</g>
</svg>
